<svg xmlns="http://www.w3.org/2000/svg" width="150" height="50" viewBox="0,0,150,50"><path fill="#222" d="M43.62 30.63L43.57 30.58L43.56 30.57Q43.66 30.68 47.05 30.64L47.05 30.64L46.95 30.53Q49.18 30.48 50.25 30.52L50.27 30.54L50.31 30.58Q49.37 27.82 46.94 22.19L46.86 22.11L46.84 22.09Q46.36 23.58 45.31 26.44L45.23 26.36L45.20 26.33Q44.17 29.20 43.60 30.61ZM51.54 33.19L51.43 33.08L51.47 33.11Q49.09 32.98 46.89 33.02L46.96 33.10L46.92 33.05Q44.72 33.14 42.44 33.33L42.37 33.26L42.39 33.28Q40.97 36.81 37.73 41.00L37.64 40.91L37.64 40.91Q35.16 41.63 33.79 42.12L33.63 41.96L33.64 41.97Q38.90 36.46 43.58 23.10L43.59 23.10L43.48 23.00Q44.76 19.59 46.13 16.36L46.23 16.45L46.09 16.31Q46.57 16.49 46.92 16.49L46.73 16.31L47.51 16.37L47.64 16.49Q48.36 17.82 53.19 29.47L53.11 29.39L53.12 29.40Q56.30 37.14 60.29 41.29L60.37 41.36L60.36 41.36Q59.87 41.25 55.99 40.37L55.90 40.29L55.90 40.28Q53.41 37.23 51.43 33.08ZM55.90 40.70L55.87 40.67L56.49 40.80L56.40 40.70Q56.80 40.88 57.10 40.99L57.14 41.03L57.15 41.04Q57.48 41.41 59.31 43.43L59.13 43.25L59.21 43.33Q62.82 44.20 65.22 45.23L65.32 45.33L65.16 45.17Q59.75 40.71 55.75 32.72L55.72 32.68L55.74 32.70Q54.23 29.51 52.78 25.56L52.68 25.46L49.97 17.98L49.99 18.00Q49.72 18.07 49.49 18.07L49.43 18.02L48.89 18.01L48.88 18.00Q48.61 17.42 47.88 16.05L47.88 16.04L47.79 15.96Q47.29 15.99 46.84 15.95L46.86 15.98L46.77 15.89Q46.47 16.01 45.94 16.01L45.80 15.87L45.87 15.94Q44.37 19.77 40.49 29.94L40.55 30.00L40.53 29.98Q37.49 38.01 32.84 42.81L32.87 42.84L32.88 42.85Q33.89 42.41 35.91 41.80L35.78 41.68L35.94 41.83Q35.04 42.57 33.48 44.36L33.59 44.47L33.46 44.34Q35.27 43.79 39.19 43.03L39.20 43.04L39.12 42.96Q42.62 38.69 44.18 35.46L44.21 35.49L44.12 35.39Q45.85 35.26 48.17 35.30L48.30 35.43L48.26 35.38Q50.86 35.29 52.23 35.36L52.27 35.40L52.40 35.53Q53.50 37.73 55.86 40.66ZM48.24 26.08L48.21 26.05L48.19 26.03Q49.13 28.18 49.89 30.28L49.89 30.27L46.60 30.30L46.54 30.24Q47.17 28.85 48.24 26.08Z"/><path fill="#333" d="M21.03 29.82L21.09 29.88L21.18 29.96Q20.82 29.83 20.51 29.83L20.44 29.76L20.54 29.86Q19.23 29.88 17.78 30.71L17.70 30.63L17.71 30.64Q16.32 31.69 16.32 33.59L16.36 33.63L16.49 33.77Q16.42 37.12 17.94 38.45L17.93 38.44L17.95 38.46Q18.95 39.69 21.23 39.69L21.20 39.66L21.17 39.62Q21.40 39.63 21.71 39.63L21.79 39.71L21.82 39.74Q23.39 39.60 24.53 37.96L24.51 37.94L24.60 38.02Q25.61 36.49 25.53 34.70L25.45 34.61L25.51 34.68Q25.65 34.28 25.65 33.86L25.53 33.74L25.65 33.86Q25.72 32.14 24.35 30.98L24.30 30.93L24.29 30.92Q22.80 29.64 21.01 29.79ZM25.59 40.05L25.51 39.97L25.51 39.97Q24.58 41.96 20.84 42.08L20.93 42.16L20.87 42.10Q17.34 42.07 15.74 40.48L15.89 40.62L15.90 40.63Q14.36 38.79 13.56 33.99L13.63 34.06L13.52 33.96Q13.32 32.31 13.32 31.05L13.30 31.03L13.35 31.09Q13.24 29.18 13.97 28.12L14.10 28.25L14.10 28.26Q15.44 26.85 18.41 26.85L18.42 26.87L18.36 26.80Q24.59 26.71 26.49 29.30L26.48 29.28L26.65 29.46Q26.69 28.51 27.11 26.91L27.12 26.93L27.19 26.99Q28.39 26.63 30.83 25.83L30.80 25.81L30.84 25.84Q28.38 31.46 28.16 37.78L28.26 37.89L28.19 37.81Q28.07 44.09 30.20 49.91L30.05 49.76L30.05 49.76Q28.30 49.12 26.51 48.85L26.60 48.93L26.70 49.03Q25.64 44.93 25.53 39.98ZM26.34 49.25L26.38 49.29L26.26 49.17Q27.03 49.36 28.44 49.67L28.53 49.77L28.43 49.66Q28.63 50.36 29.20 51.77L29.21 51.78L29.20 51.77Q31.90 52.60 34.19 53.90L34.12 53.83L34.13 53.84Q30.08 47.24 30.08 38.72L30.17 38.80L30.05 38.68Q30.12 32.40 32.60 26.61L32.57 26.58L32.59 26.60Q31.97 26.98 30.60 27.63L30.58 27.60L30.53 27.55Q30.77 26.68 31.41 25.12L31.55 25.26L31.43 25.13Q29.88 25.69 26.69 26.56L26.67 26.54L26.72 26.59Q26.72 27.28 26.41 28.46L26.24 28.29L26.36 28.41Q24.29 26.45 18.16 26.30L18.12 26.26L18.12 26.26Q15.03 26.29 13.66 27.77L13.58 27.70L13.70 27.81Q12.80 28.82 12.84 30.72L12.81 30.69L12.97 30.85Q13.10 33.88 14.09 37.65L14.05 37.60L13.97 37.53Q14.65 39.96 15.56 40.91L15.63 40.97L15.95 41.29L15.89 41.24Q17.17 44.11 22.61 44.34L22.52 44.25L22.51 44.24Q23.65 44.39 25.48 44.09L25.39 43.99L25.47 44.07Q25.67 46.91 26.28 49.19ZM22.88 32.08L23.01 32.21L23.03 32.23Q23.99 32.13 24.83 32.44L24.81 32.41L24.97 32.58Q25.12 33.06 25.23 33.67L25.12 33.56L25.19 33.63Q25.35 34.24 25.27 34.85L25.17 34.76L25.26 34.85Q25.17 36.66 24.14 37.95L24.17 37.98L24.16 37.97Q23.09 39.49 21.23 39.30L21.17 39.24L21.08 39.16Q19.85 39.22 18.90 38.80L19.02 38.92L18.94 38.84Q18.51 37.96 18.51 36.74L18.58 36.80L18.63 36.86Q18.64 36.56 18.64 36.25L18.63 36.24L18.57 36.19Q18.47 34.34 19.80 33.18L19.82 33.19L19.87 33.24Q21.18 32.06 22.93 32.13Z"/><path fill="#333" d="M123.26 39.75L123.35 39.84L123.27 39.77Q121.39 39.79 119.38 39.98L119.41 40.02L119.42 40.02Q119.97 34.67 119.97 29.84L120.00 29.87L120.07 29.94Q120.14 25.10 119.50 19.89L119.50 19.90L119.44 19.83Q114.82 19.40 111.62 17.72L111.62 17.72L110.86 15.93L110.81 15.88Q110.62 15.39 110.01 14.18L110.12 14.28L110.05 14.21Q115.24 17.00 121.25 17.19L121.16 17.10L121.16 17.10Q127.00 17.23 132.44 15.17L132.55 15.27L132.47 15.20Q131.82 16.68 131.17 18.51L131.21 18.55L131.09 18.42Q127.46 19.70 123.19 19.89L123.19 19.89L123.29 19.98Q123.15 25.06 123.15 30.01L122.98 29.85L123.09 29.95Q123.02 34.84 123.33 39.82ZM133.22 14.58L133.27 14.63L133.12 14.48Q127.40 16.86 121.19 16.67L121.22 16.70L121.23 16.71Q114.44 16.39 109.33 13.42L109.33 13.41L109.32 13.40Q110.16 14.78 111.46 18.05L111.41 18.01L111.53 18.13Q112.02 18.27 113.27 18.84L113.34 18.91L113.41 18.98Q113.60 19.63 113.95 21.15L113.87 21.08L113.92 21.13Q116.17 21.93 119.22 22.16L119.33 22.27L119.37 22.31Q119.56 25.81 119.56 29.58L119.57 29.59L119.69 29.72Q119.74 35.13 118.94 40.50L118.84 40.40L118.83 40.39Q120.56 40.33 121.09 40.33L121.12 40.36L121.01 40.25Q120.99 40.53 120.93 41.20L121.00 41.26L121.04 41.31Q120.95 41.94 120.95 42.28L120.99 42.32L121.01 42.34Q122.07 42.14 123.59 42.21L123.64 42.27L123.60 42.23Q124.52 42.28 126.35 42.43L126.48 42.56L126.32 42.39Q125.13 37.52 125.02 32.34L125.08 32.40L125.05 32.37Q124.98 27.13 125.52 22.22L125.48 22.18L125.45 22.15Q129.33 21.54 132.49 20.32L132.59 20.42L132.61 20.44Q133.27 18.01 134.29 15.95L134.37 16.03L134.32 15.98Q132.90 16.58 132.10 16.88L132.11 16.89L132.21 17.00Q132.67 15.74 133.24 14.59Z"/><path fill="#333" d="M93.02 40.29L93.19 40.46L93.17 40.45Q89.11 40.68 88.12 38.36L88.09 38.33L88.05 38.29Q88.72 37.25 90.28 35.46L90.31 35.48L90.40 35.58Q90.94 37.64 93.95 37.75L93.96 37.77L93.86 37.66Q97.28 37.77 98.92 36.44L98.89 36.42L98.97 36.50Q100.25 34.77 100.18 32.07L100.26 32.15L100.18 32.07Q100.04 27.02 95.25 27.25L95.38 27.38L95.19 27.20Q92.41 27.38 90.66 28.64L90.77 28.75L90.37 28.51L90.26 28.47L90.23 28.44Q90.61 25.31 90.49 22.57L90.38 22.46L90.47 22.56Q90.23 19.80 89.88 16.48L89.96 16.56L89.85 16.45Q93.55 17.44 97.35 17.33L97.40 17.37L97.41 17.39Q101.25 17.34 104.83 16.08L104.79 16.05L104.30 17.65L104.18 17.53Q103.92 18.33 103.73 19.17L103.77 19.21L103.70 19.15Q100.52 20.11 96.64 20.11L96.67 20.15L96.71 20.19Q95.35 20.27 93.86 20.12L93.74 20.00L93.84 20.09Q93.78 20.80 93.44 25.26L93.37 25.18L93.47 25.29Q94.16 24.68 96.21 24.52L96.19 24.50L96.29 24.60Q99.93 24.74 101.37 26.41L101.46 26.50L101.41 26.45Q102.81 28.00 103.08 31.84L103.01 31.78L103.02 31.79Q103.30 36.00 102.09 38.01L102.11 38.04L102.17 38.10Q100.14 39.99 96.83 40.22L96.88 40.27L96.71 40.10Q95.80 40.25 93.14 40.41ZM99.23 42.74L99.22 42.72L99.26 42.76Q102.55 42.71 104.46 41.60L104.57 41.72L104.48 41.63Q105.43 40.07 105.43 37.97L105.40 37.94L105.55 38.09Q105.54 35.00 104.59 30.88L104.59 30.88L104.51 30.80Q104.12 29.04 102.90 27.63L102.84 27.58L103.03 27.80L102.70 27.40L102.39 27.24L102.43 27.28Q102.06 26.49 101.41 25.80L101.46 25.85L101.40 25.83L101.50 25.93Q99.88 24.16 96.19 24.16L96.28 24.26L95.98 24.21L96.04 24.27Q95.98 23.57 96.17 22.47L96.25 22.55L96.26 22.55Q101.19 22.61 105.23 20.98L105.31 21.06L105.35 21.10Q105.63 19.56 106.58 16.74L106.63 16.79L104.51 17.71L104.61 17.81Q104.93 16.61 105.43 15.47L105.40 15.44L105.38 15.42Q101.59 16.92 97.48 17.00L97.40 16.92L97.38 16.90Q93.31 17.06 89.35 15.95L89.39 15.99L89.44 16.04Q90.07 20.40 90.07 24.82L90.08 24.82L90.00 24.75Q89.98 26.63 89.87 28.54L89.95 28.62L89.99 28.66Q90.20 28.79 90.77 29.09L90.83 29.16L90.70 29.03Q91.05 28.80 91.70 28.46L91.80 28.56L91.82 28.58Q91.81 29.37 91.58 30.90L91.47 30.78L91.50 30.82Q92.01 31.10 92.43 31.33L92.39 31.29L92.38 31.27Q95.21 29.58 97.08 29.58L96.98 29.48L96.92 29.42Q98.29 29.46 99.47 30.11L99.44 30.07L99.49 30.13Q99.77 31.09 99.81 32.04L99.83 32.07L99.96 32.20Q100.03 34.77 99.00 35.88L99.02 35.90L98.99 35.87Q97.62 37.09 95.38 37.32L95.41 37.35L95.24 37.18Q94.30 37.27 93.61 37.19L93.74 37.32L93.77 37.35Q92.84 37.14 92.07 36.79L92.11 36.83L92.05 36.58L91.84 36.60L91.89 36.65Q91.19 36.25 90.66 34.92L90.52 34.79L90.59 34.86Q89.23 36.24 87.56 38.37L87.52 38.33L87.65 38.46Q87.96 39.12 88.80 40.07L88.78 40.04L88.79 40.06Q89.87 41.90 92.69 42.40L92.63 42.34L92.57 42.28Q93.76 42.51 99.12 42.63Z"/><path d="M17 14 C79 5,68 37,145 15" stroke="#333" fill="none"/><path d="M18 21 C77 9,85 13,147 11" stroke="#555" fill="none"/><path d="M7 6 C84 40,64 44,141 12" stroke="#888" fill="none"/><path fill="#444" d="M75.39 30.90L75.48 30.99L75.44 30.95Q75.52 29.51 74.70 28.59L74.59 28.48L74.65 28.54Q73.80 27.59 72.35 27.63L72.33 27.62L72.35 27.63Q69.98 27.66 69.14 29.79L69.32 29.97L69.28 29.93Q68.87 30.59 68.83 31.27L68.93 31.37L68.95 31.39Q68.67 36.17 67.75 40.51L67.69 40.45L67.75 40.50Q66.03 40.99 64.16 41.98L64.14 41.96L64.18 42.00Q66.48 35.05 66.22 27.74L66.31 27.83L66.22 27.75Q65.98 20.43 63.43 13.61L63.32 13.50L63.36 13.54Q65.18 14.91 67.20 15.59L67.13 15.52L67.23 15.62Q68.71 21.45 68.90 27.31L68.93 27.33L68.86 27.27Q70.31 25.25 73.02 25.33L72.89 25.20L73.01 25.32Q78.08 25.41 78.19 30.77L78.09 30.67L78.14 30.72Q78.34 36.48 79.71 41.13L79.64 41.05L79.75 41.16Q77.85 40.29 76.10 40.10L76.12 40.12L75.98 39.98Q75.43 36.69 75.32 30.83ZM75.75 40.40L75.71 40.36L75.72 40.37Q76.79 40.53 77.90 40.79L77.92 40.82L77.78 40.68Q77.93 40.94 78.46 42.92L78.37 42.83L78.34 42.80Q81.41 43.85 83.43 45.30L83.36 45.23L83.46 45.33Q80.64 39.43 80.11 33.11L80.22 33.22L80.22 33.21Q79.80 29.41 78.40 27.85L78.54 28.00L78.47 27.93Q78.37 27.75 77.73 27.30L77.73 27.30L77.75 27.32Q77.46 26.77 76.81 26.01L77.00 26.19L77.00 26.11L76.98 26.09Q76.03 25.15 72.91 24.88L72.94 24.92L72.88 24.85Q72.23 24.92 70.82 25.26L70.84 25.28L70.74 25.18Q70.57 20.37 70.23 17.86L70.29 17.93L70.21 17.84Q69.46 17.73 67.97 17.43L68.06 17.52L68.08 17.53Q67.82 16.71 67.56 15.22L67.59 15.26L67.50 15.17Q64.62 14.27 62.75 12.71L62.72 12.68L62.82 12.77Q65.63 19.77 65.89 27.57L65.95 27.63L65.86 27.54Q66.29 35.47 63.74 42.82L63.78 42.86L63.69 42.76Q64.58 42.13 65.72 41.64L65.85 41.76L64.97 43.89L64.93 43.86Q68.24 42.71 70.22 42.52L70.09 42.38L70.04 42.34Q70.75 37.08 70.94 33.12L70.88 33.05L70.92 33.09Q71.01 31.24 72.95 30.14L73.01 30.20L72.91 30.09Q73.44 29.86 73.97 29.90L74.02 29.95L73.92 29.85Q74.07 29.85 74.41 29.89L74.49 29.97L75.02 30.15L74.93 30.06Q74.84 30.35 74.96 30.81L75.06 30.91L75.11 30.97Q75.22 36.93 75.71 40.36Z"/></svg>